<svg xmlns="http://www.w3.org/2000/svg" viewBox="0 0 161.56 124.29"><defs><style>.cls-1{fill:#d32d2d;}.cls-10,.cls-14,.cls-2{fill:#fff;}.cls-3{fill:#bc2a2a;}.cls-4{fill:#ef5e5e;}.cls-5{fill:#f7eeb0;}.cls-6{fill:#4a4e51;}.cls-7{fill:#383c3f;}.cls-8{fill:#8b8d8e;}.cls-9{fill:#e06e41;}.cls-10{font-size:20.98px;letter-spacing:-0.04em;}.cls-10,.cls-14{font-family:Rubik-Medium, Rubik;font-weight:500;}.cls-11{letter-spacing:-0.01em;}.cls-12{letter-spacing:-0.01em;}.cls-13{letter-spacing:-0.02em;}.cls-14{font-size:13.05px;}.cls-15{letter-spacing:-0.03em;}.cls-16{letter-spacing:-0.03em;}</style></defs><g id="Calque_2" data-name="Calque 2"><g id="OBJECTS"><circle class="cls-1" cx="83.74" cy="62.15" r="62.15"/><circle class="cls-2" cx="83.74" cy="62.15" r="56"/><circle class="cls-1" cx="83.74" cy="62.15" r="54.67"/><circle class="cls-2" cx="83.74" cy="62.15" r="51.75"/><path class="cls-1" d="M29.84,32.4,96,33.16c3.19,0,5.27,2.41,4.65,5.29l-12,56L11,93.57l12-56A7.08,7.08,0,0,1,29.84,32.4Z"/><path class="cls-1" d="M156.55,97.36l-64.86-.75,10.56-49.34a3.8,3.8,0,0,1,3.69-2.77l29.36.34c4.16,0,7.55,2.14,8.85,5.46L155.82,80Z"/><polygon class="cls-3" points="14.23 78.3 95.41 79.24 91.69 96.61 10.51 95.67 14.23 78.3"/><path class="cls-3" d="M155.81,79.94l-60.4-.7L91.69,96.61l64.86.75L155.82,80S155.81,80,155.81,79.94Z"/><path class="cls-4" d="M24.35,34.88l76.05.88a4.68,4.68,0,0,0-4.4-2.6L29.84,32.4A7.37,7.37,0,0,0,24.35,34.88Z"/><polygon class="cls-3" points="125.38 69.53 109.79 69.34 112.92 54.71 128.51 54.89 125.38 69.53"/><polygon class="cls-5" points="123.81 67.67 112.14 67.53 114.49 56.57 126.16 56.71 123.81 67.67"/><polygon class="cls-3" points="151.81 69.81 133.33 69.62 136.46 54.99 146.04 55.1 151.81 69.81"/><polygon class="cls-5" points="151.1 67.98 136.08 67.81 138.43 56.85 146.76 56.95 151.1 67.98"/><polygon class="cls-6" points="8.7 91.92 160.91 93.68 158.79 103.57 6.58 101.81 8.7 91.92"/><ellipse class="cls-7" cx="31.08" cy="96.87" rx="14.25" ry="11.49" transform="translate(-42.07 26.17) rotate(-28.19)"/><path class="cls-6" d="M40.36,97c-1,4.64-6,8.35-11.08,8.29s-8.47-3.87-7.48-8.51,5.95-8.35,11.08-8.29S41.35,92.34,40.36,97Z"/><path class="cls-8" d="M38.91,97c-.84,3.92-5,7.05-9.35,7s-7.15-3.27-6.31-7.18,5-7,9.35-7S39.75,93.05,38.91,97Z"/><ellipse class="cls-7" cx="127.62" cy="97.99" rx="14.25" ry="11.49" transform="translate(-31.15 71.9) rotate(-28.19)"/><ellipse class="cls-6" cx="127.62" cy="97.99" rx="9.84" ry="7.94" transform="translate(-31.15 71.91) rotate(-28.19)"/><path class="cls-8" d="M135.45,98.08c-.84,3.91-5,7-9.34,7s-7.15-3.26-6.31-7.17,5-7.05,9.34-7S136.29,94.17,135.45,98.08Z"/><polygon class="cls-8" points="158.59 93.66 152.82 93.59 155.8 79.7 161.56 79.77 158.59 93.66"/><path class="cls-9" d="M23.79,84.43l-7.2-.08a.5.5,0,0,1-.53-.6l.35-1.61a.81.81,0,0,1,.78-.58l7.2.08a.49.49,0,0,1,.52.6l-.34,1.61A.8.8,0,0,1,23.79,84.43Z"/><path class="cls-9" d="M151.55,85.91l-7.2-.08a.5.5,0,0,1-.53-.6l.35-1.61A.8.8,0,0,1,145,83l7.2.08a.49.49,0,0,1,.52.6l-.34,1.61A.8.8,0,0,1,151.55,85.91Z"/><path class="cls-1" d="M0,36.57H0a1.61,1.61,0,0,0,1.65,2l18.86.22a1.61,1.61,0,0,1,1.64,2h0a2.6,2.6,0,0,1-2.49,2L4.35,42.56a2.6,2.6,0,0,0-2.49,1.95h0a1.61,1.61,0,0,0,1.64,2l15.36.18a1.61,1.61,0,0,1,1.64,2h0a2.6,2.6,0,0,1-2.49,2l-12-.14a2.61,2.61,0,0,0-2.49,2h0a1.61,1.61,0,0,0,1.65,2l11.94.14a1.6,1.6,0,0,1,1.65,2h0a2.6,2.6,0,0,1-2.49,2L8,58.44a2.59,2.59,0,0,0-2.48,2h0a1.6,1.6,0,0,0,1.64,2l8.27.09a1.62,1.62,0,0,1,1.65,2h0a2.61,2.61,0,0,1-2.49,2l-5.91-.07a2.59,2.59,0,0,0-2.49,2h0a1.6,1.6,0,0,0,1.64,2l5.91.07a1.61,1.61,0,0,1,1.65,2h0a2.61,2.61,0,0,1-2.49,2l-3.38,0a2.61,2.61,0,0,0-2.49,1.95h0a1.61,1.61,0,0,0,1.65,2l10.79.12a2.58,2.58,0,0,0,2.48-2l.43-2,.84-4,.85-3.95.84-4,.85-4,.84-3.94.85-4,.85-4,.84-3.95.85-4,.42-2a1.61,1.61,0,0,0-1.64-2L2.53,34.62A2.61,2.61,0,0,0,0,36.57Z"/><text class="cls-10" transform="translate(33.9 58.87)">F<tspan class="cls-11" x="11.75" y="0">A</tspan><tspan class="cls-12" x="26.08" y="0">S</tspan><tspan class="cls-13" x="39.39" y="0">T</tspan></text><text class="cls-14" transform="translate(25.74 73.86)">DELIVE<tspan class="cls-15" x="45.69" y="0">R</tspan><tspan class="cls-16" x="54.14" y="0">Y</tspan></text></g></g></svg>