<svg xmlns="http://www.w3.org/2000/svg" viewBox="0 0 173.5 130.95"><defs><style>.cls-1,.cls-10,.cls-13{fill:#d32d2d;}.cls-2{fill:#bc2a2a;}.cls-3{fill:#ef5e5e;}.cls-4{fill:#f7eeb0;}.cls-5{fill:#4a4e51;}.cls-6{fill:#383c3f;}.cls-7{fill:#8b8d8e;}.cls-8{fill:#e06e41;}.cls-17,.cls-9{fill:#fff;}.cls-10{font-size:37.47px;}.cls-10,.cls-13,.cls-17{font-family:Rubik-Medium, Rubik;font-weight:500;}.cls-11{letter-spacing:-0.01em;}.cls-12{font-size:21.04px;}.cls-13{font-size:18.13px;}.cls-14{letter-spacing:-0.01em;}.cls-15{letter-spacing:-0.08em;}.cls-16{letter-spacing:-0.02em;}.cls-17{font-size:18.76px;}.cls-18{letter-spacing:-0.02em;}.cls-19{letter-spacing:0em;}</style></defs><g id="Calque_2" data-name="Calque 2"><g id="OBJECTS"><path class="cls-1" d="M36.1,49.12h99.68a13.23,13.23,0,0,1,12.16,8l17.8,41.21-.07,16.34H28.56v-58A7.53,7.53,0,0,1,36.1,49.12Z"/><rect class="cls-2" x="28.56" y="98.32" width="78.65" height="18.59"/><path class="cls-2" d="M165.74,98.32H107.21v18.59h62.84l-4.29-18.52A.14.14,0,0,1,165.74,98.32Z"/><path class="cls-3" d="M143.82,51.83a13.29,13.29,0,0,0-8-2.71H36.1a7.5,7.5,0,0,0-5.79,2.71Z"/><rect class="cls-2" x="103.47" y="64.32" width="23.45" height="23.26"/><rect class="cls-4" x="106.59" y="67.24" width="17.4" height="17.42"/><polygon class="cls-2" points="160.92 87.53 137.31 87.58 137.31 64.32 151.18 64.32 160.92 87.53"/><polygon class="cls-4" points="159.71 84.66 140.72 84.66 140.72 67.24 152.4 67.24 159.71 84.66"/><rect class="cls-5" x="26.03" y="112.93" width="147.47" height="10.58"/><circle class="cls-6" cx="48.69" cy="117.94" r="13.01"/><circle class="cls-5" cx="48.69" cy="117.94" r="8.99"/><circle class="cls-7" cx="48.69" cy="117.94" r="7.58"/><circle class="cls-6" cx="142.23" cy="117.94" r="13.01"/><circle class="cls-5" cx="142.23" cy="117.94" r="8.99"/><circle class="cls-7" cx="142.23" cy="117.94" r="7.58"/><rect class="cls-7" x="165.67" y="98.07" width="5.58" height="14.86"/><rect class="cls-8" x="31.46" y="101.76" width="8.24" height="2.98" rx="0.63"/><rect class="cls-8" x="155.24" y="101.76" width="8.24" height="2.98" rx="0.63"/><circle class="cls-9" cx="48.56" cy="48.59" r="48.1" transform="translate(-10.06 84.39) rotate(-76.43)"/><path class="cls-1" d="M17.74,19.2A42.6,42.6,0,0,1,78,17.75q1.56,1.5,2.94,3.1l-3.4,3.56,14.36,2.05L89.11,12.22,85,16.49q-1.4-1.59-3-3.08A48.57,48.57,0,0,0,8,75.33l8.42,1.2A42.59,42.59,0,0,1,17.74,19.2Z"/><path class="cls-1" d="M83.74,82.09A48.6,48.6,0,0,0,93.05,29l-7.19-1A42.58,42.58,0,0,1,22.43,82.19l1.93-2-5.14-.73,0,0h0L10,78.11l2.74,14.24,5.53-5.81A48.57,48.57,0,0,0,83.74,82.09Z"/><text class="cls-10" transform="translate(18.33 52.43)"><tspan class="cls-11">2</tspan><tspan x="22.93" y="0">4</tspan><tspan class="cls-12" x="47.36" y="0">H</tspan></text><text class="cls-13" transform="translate(19.6 70.9)">7 <tspan class="cls-14" x="13.99" y="0">D</tspan><tspan class="cls-15" x="26.48" y="0">A</tspan><tspan class="cls-16" x="37.67" y="0">Y</tspan><tspan x="49.27" y="0">S</tspan></text><text class="cls-17" transform="translate(30.51 105.5)">G<tspan class="cls-18" x="13.14" y="0">U</tspan><tspan class="cls-19" x="26.23" y="0">ARANTEED</tspan></text></g></g></svg>