<svg xmlns="http://www.w3.org/2000/svg" viewBox="0 0 147.47 110.79"><defs><style>.cls-1{fill:#d32d2d;}.cls-2{fill:#bc2a2a;}.cls-3{fill:#ef5e5e;}.cls-4{fill:#f7eeb0;}.cls-5{fill:#4a4e51;}.cls-6{fill:#383c3f;}.cls-7{fill:#8b8d8e;}.cls-8{fill:#e06e41;}.cls-10,.cls-9{fill:#fff;}.cls-10{font-size:18.76px;font-family:Rubik-Medium, Rubik;font-weight:500;}.cls-11{letter-spacing:-0.03em;}.cls-12{letter-spacing:-0.03em;}</style></defs><g id="Calque_2" data-name="Calque 2"><g id="OBJECTS"><path class="cls-1" d="M8.12,0H72.22a5.59,5.59,0,0,1,5.59,5.59v60a0,0,0,0,1,0,0H2.53a0,0,0,0,1,0,0v-60A5.59,5.59,0,0,1,8.12,0Z"/><path class="cls-1" d="M144,67.79H81.18V15a3,3,0,0,1,3-3h20.6a10.85,10.85,0,0,1,10,6.66l8.3,19.78,4.86.49a13.48,13.48,0,0,1,11.77,10.36Z"/><rect class="cls-2" x="2.53" y="49.2" width="78.65" height="18.59"/><path class="cls-2" d="M139.71,49.2H81.18V67.79H144l-4.29-18.51A.24.24,0,0,1,139.71,49.2Z"/><path class="cls-3" d="M3.33,2.72H77A5.57,5.57,0,0,0,72.22,0H8.12A5.57,5.57,0,0,0,3.33,2.72Z"/><path class="cls-3" d="M111.4,14.23A10.9,10.9,0,0,0,104.78,12H84.18a3,3,0,0,0-2.89,2.24Z"/><rect class="cls-2" x="85.11" y="22.8" width="15.1" height="15.66"/><rect class="cls-4" x="87.01" y="24.77" width="11.31" height="11.73"/><polygon class="cls-2" points="123.1 38.42 107.21 38.46 107.21 22.8 116.54 22.8 123.1 38.42"/><polygon class="cls-4" points="122.29 36.49 109.5 36.49 109.5 24.77 117.37 24.77 122.29 36.49"/><rect class="cls-5" y="63.81" width="147.47" height="10.58"/><circle class="cls-6" cx="22.66" cy="68.82" r="13.01" transform="translate(-42.03 36.18) rotate(-45)"/><circle class="cls-5" cx="22.66" cy="68.82" r="8.99" transform="translate(-48.91 80.13) rotate(-80.76)"/><circle class="cls-7" cx="22.66" cy="68.82" r="7.58"/><circle class="cls-6" cx="116.2" cy="68.82" r="13.01" transform="translate(29.65 172.49) rotate(-80.78)"/><circle class="cls-5" cx="116.2" cy="68.82" r="8.99" transform="translate(23.99 167.49) rotate(-77.58)"/><path class="cls-7" d="M123.78,68.82a7.59,7.59,0,1,1-7.58-7.58A7.58,7.58,0,0,1,123.78,68.82Z"/><rect class="cls-7" x="139.64" y="48.95" width="5.58" height="14.86"/><rect class="cls-8" x="5.43" y="52.65" width="8.24" height="2.98" rx="0.63"/><rect class="cls-8" x="129.21" y="52.65" width="8.24" height="2.98" rx="0.63"/><circle class="cls-9" cx="39.32" cy="25.89" r="20.22" transform="translate(-6.67 15.83) rotate(-21.02)"/><circle class="cls-1" cx="39.32" cy="25.89" r="18.33"/><rect class="cls-9" x="38.28" y="6.36" width="2.09" height="39.07" transform="translate(29.83 -20.22) rotate(45)"/><path class="cls-9" d="M41.62,13.47a10.41,10.41,0,0,1,3,1A8.81,8.81,0,0,1,46.72,16,6.75,6.75,0,0,1,48,17.8a5.23,5.23,0,0,1,.52,1.78.79.79,0,0,1-.26.67,1,1,0,0,1-.67.26H45.2a1.44,1.44,0,0,1-.88-.23,2.42,2.42,0,0,1-.53-.6,4.63,4.63,0,0,0-1.57-1.5,6.06,6.06,0,0,0-3.12-.64,7.86,7.86,0,0,0-1.71.19,5,5,0,0,0-1.41.55,3,3,0,0,0-.95.88,2.27,2.27,0,0,0,0,2.47,3,3,0,0,0,1.23.86,12.87,12.87,0,0,0,2.17.67l3.22.73a20.21,20.21,0,0,1,3.5,1.05,7.78,7.78,0,0,1,2.35,1.45,4.92,4.92,0,0,1,1.31,1.94,7.57,7.57,0,0,1,.4,2.52,6.24,6.24,0,0,1-.52,2.52,6.65,6.65,0,0,1-1.5,2.1A8.34,8.34,0,0,1,44.82,37a12,12,0,0,1-3.2.87v2.34a.94.94,0,0,1-.28.66.9.9,0,0,1-.66.27H37.89a.89.89,0,0,1-.65-.27.9.9,0,0,1-.28-.66V37.89a13.41,13.41,0,0,1-2.91-.81,9.7,9.7,0,0,1-2.38-1.4A6.75,6.75,0,0,1,30,33.77a5.48,5.48,0,0,1-.69-2.4.75.75,0,0,1,.26-.67.94.94,0,0,1,.67-.26h2.41a1.69,1.69,0,0,1,.9.2,1.58,1.58,0,0,1,.52.63,7.07,7.07,0,0,0,.58.89,3.13,3.13,0,0,0,.94.8,5.57,5.57,0,0,0,1.46.56,9,9,0,0,0,2.19.23,11.83,11.83,0,0,0,2-.16A5.78,5.78,0,0,0,43,33.08a3.72,3.72,0,0,0,1.17-.9,2,2,0,0,0,.45-1.33,1.69,1.69,0,0,0-.48-1.24,3.87,3.87,0,0,0-1.47-.83,18.76,18.76,0,0,0-2.43-.65c-1-.21-2.08-.47-3.34-.8a17.29,17.29,0,0,1-3-1A7.14,7.14,0,0,1,31.7,25,5.46,5.46,0,0,1,30.44,23,7.89,7.89,0,0,1,30,20.34a5.88,5.88,0,0,1,.52-2.49A6.83,6.83,0,0,1,32,15.8a7.92,7.92,0,0,1,2.19-1.52A11.53,11.53,0,0,1,37,13.4V11.06a.9.9,0,0,1,.28-.66.89.89,0,0,1,.65-.27h2.79a.9.9,0,0,1,.66.27.94.94,0,0,1,.28.66Z"/><rect class="cls-1" y="81.84" width="146.75" height="28.95"/><rect class="cls-3" y="81.84" width="146.75" height="3"/><text class="cls-10" transform="translate(2.7 103.96)">FREE DELIVE<tspan class="cls-11" x="117.22" y="0">R</tspan><tspan class="cls-12" x="129.36" y="0">Y</tspan></text></g></g></svg>