<svg xmlns="http://www.w3.org/2000/svg" viewBox="0 0 184.38 113.84"><defs><style>.cls-1{fill:#be3e32;}.cls-2{fill:#fff;}.cls-3{fill:#23a3d0;}</style></defs><g id="Calque_2" data-name="Calque 2"><g id="Calque_1-2" data-name="Calque 1"><path class="cls-1" d="M79.26,0V32.44L34.49,57,79.26,81.58v32.26L0,70.5V43.25Z"/><path class="cls-2" d="M84.42,109V88.4L141.7,60.7,84.51,33l-.09-20.46L163.68,52V69.54Z"/><path class="cls-3" d="M79.41,59.63V70a16.12,16.12,0,0,1-2.46.21,15.78,15.78,0,0,1-11-4A13.22,13.22,0,0,1,66,46.5a15.43,15.43,0,0,1,10.78-4q7.08,0,11.17,3.78t4.08,10.31v13H81.11V57.28A4.86,4.86,0,0,0,80,53.92a3.85,3.85,0,0,0-3-1.25,4.31,4.31,0,0,0-3,1.14,3.59,3.59,0,0,0-1.26,2.73,3.54,3.54,0,0,0,1.15,2.72,4.06,4.06,0,0,0,2.89,1.07A5.38,5.38,0,0,0,79.41,59.63Z"/><path class="cls-3" d="M124.46,69.61H113.51v-15c0-1.53-.69-2.3-2.08-2.3s-2.05.77-2.05,2.3v15H98.44V54.77A11.54,11.54,0,0,1,102.21,46a14,14,0,0,1,19.29.57q3,3.22,3,9Z"/><path class="cls-3" d="M147.06,59.63V70a16.12,16.12,0,0,1-2.46.21,15.78,15.78,0,0,1-11-4,13.22,13.22,0,0,1,0-19.72,15.43,15.43,0,0,1,10.78-4q7.08,0,11.17,3.78t4.08,10.31v13H148.75V57.28a4.86,4.86,0,0,0-1.12-3.36,3.85,3.85,0,0,0-3-1.25,4.31,4.31,0,0,0-3,1.14,3.59,3.59,0,0,0-1.26,2.73,3.54,3.54,0,0,0,1.15,2.72,4.06,4.06,0,0,0,2.89,1.07A5.38,5.38,0,0,0,147.06,59.63Z"/><path class="cls-3" d="M184.38,43.38V53.89a4.84,4.84,0,0,0-3.18.79,4.91,4.91,0,0,0-1.09,3.11q-.77,7.71-6.56,10.89-3.08,1.65-8.72,1.65H163.3V59.76h.5a5.61,5.61,0,0,0,3.76-1,5,5,0,0,0,1.31-3.51,22.43,22.43,0,0,1,.83-5.73,8.31,8.31,0,0,1,2.44-3.29q3.23-2.85,8.93-2.85Z"/></g></g></svg>